<mxfile host="Electron" agent="Mozilla/5.0 (Windows NT 10.0; Win64; x64) AppleWebKit/537.36 (KHTML, like Gecko) draw.io/26.1.1 Chrome/132.0.6834.210 Electron/34.3.3 Safari/537.36" version="26.1.1">
  <diagram id="C5RBs43oDa-KdzZeNtuy" name="Page-1">
    <mxGraphModel dx="2074" dy="1204" grid="1" gridSize="12" guides="1" tooltips="1" connect="1" arrows="1" fold="1" page="1" pageScale="1" pageWidth="827" pageHeight="1169" math="0" shadow="0">
      <root>
        <mxCell id="WIyWlLk6GJQsqaUBKTNV-0" />
        <mxCell id="WIyWlLk6GJQsqaUBKTNV-1" parent="WIyWlLk6GJQsqaUBKTNV-0" />
        <mxCell id="09TjNsZcq6WUHKC7I4qy-29" style="edgeStyle=orthogonalEdgeStyle;rounded=0;orthogonalLoop=1;jettySize=auto;html=1;labelBackgroundColor=none;fontColor=default;" parent="WIyWlLk6GJQsqaUBKTNV-1" source="09TjNsZcq6WUHKC7I4qy-8" target="09TjNsZcq6WUHKC7I4qy-9" edge="1">
          <mxGeometry relative="1" as="geometry" />
        </mxCell>
        <mxCell id="09TjNsZcq6WUHKC7I4qy-8" value="Start" style="strokeWidth=2;html=1;shape=mxgraph.flowchart.start_1;whiteSpace=wrap;labelBackgroundColor=none;" parent="WIyWlLk6GJQsqaUBKTNV-1" vertex="1">
          <mxGeometry x="117.5" y="24" width="120" height="60" as="geometry" />
        </mxCell>
        <mxCell id="09TjNsZcq6WUHKC7I4qy-9" value="Declarations&lt;div&gt;&lt;span style=&quot;white-space: pre;&quot;&gt;&#x9;&lt;/span&gt;string customerLastName&lt;br&gt;&lt;/div&gt;&lt;div&gt;&lt;span style=&quot;white-space: pre;&quot;&gt;&#x9;&lt;/span&gt;string namePrompt = &quot; Please enter last name of customer &quot;&lt;br&gt;&lt;/div&gt;&lt;div&gt;&lt;span style=&quot;white-space: pre;&quot;&gt;&#x9;&lt;/span&gt;num numberOfBathrooms&lt;/div&gt;&lt;div&gt;&lt;span style=&quot;white-space: pre;&quot;&gt;&#x9;&lt;/span&gt;num numberOfOtherRooms&lt;/div&gt;&lt;div&gt;&lt;span style=&quot;white-space: pre;&quot;&gt;&#x9;&lt;/span&gt;num costOfBathrooms = 15&lt;br&gt;&lt;/div&gt;&lt;div&gt;&lt;span style=&quot;white-space: pre;&quot;&gt;&#x9;&lt;/span&gt;num costOfOtherRooms = 10&lt;br&gt;&lt;/div&gt;&lt;div&gt;&lt;span style=&quot;white-space: pre;&quot;&gt;&#x9;&lt;/span&gt;num totalCostOfBathrooms&lt;br&gt;&lt;/div&gt;&lt;div&gt;&lt;span style=&quot;white-space: pre;&quot;&gt;&#x9;&lt;/span&gt;num totalCostOfOtherRooms&lt;br&gt;&lt;/div&gt;&lt;div&gt;&lt;span style=&quot;white-space: pre;&quot;&gt;&#x9;&lt;/span&gt;num baseCharge = 40&lt;/div&gt;&lt;div&gt;&lt;span style=&quot;white-space: pre;&quot;&gt;&#x9;&lt;/span&gt;num serviceCharge&amp;nbsp;&lt;/div&gt;&lt;div&gt;&lt;span style=&quot;white-space: pre;&quot;&gt;&#x9;&lt;/span&gt;string QUIT = &quot; ZZZZ &quot;&amp;nbsp;&lt;br&gt;&lt;/div&gt;&lt;div&gt;&lt;span style=&quot;white-space: pre;&quot;&gt;&#x9;&lt;/span&gt;string endLine = &quot; End of program &quot;&amp;nbsp;&lt;br&gt;&lt;/div&gt;&lt;div&gt;&lt;br&gt;&lt;/div&gt;" style="rounded=0;whiteSpace=wrap;html=1;align=left;labelBackgroundColor=none;" parent="WIyWlLk6GJQsqaUBKTNV-1" vertex="1">
          <mxGeometry y="112" width="350.5" height="200" as="geometry" />
        </mxCell>
        <mxCell id="09TjNsZcq6WUHKC7I4qy-55" style="edgeStyle=orthogonalEdgeStyle;rounded=0;orthogonalLoop=1;jettySize=auto;html=1;labelBackgroundColor=none;fontColor=default;" parent="WIyWlLk6GJQsqaUBKTNV-1" source="09TjNsZcq6WUHKC7I4qy-31" target="09TjNsZcq6WUHKC7I4qy-47" edge="1">
          <mxGeometry relative="1" as="geometry" />
        </mxCell>
        <mxCell id="09TjNsZcq6WUHKC7I4qy-56" value="Yes" style="edgeLabel;html=1;align=center;verticalAlign=middle;resizable=0;points=[];labelBackgroundColor=none;" parent="09TjNsZcq6WUHKC7I4qy-55" vertex="1" connectable="0">
          <mxGeometry x="-0.2173" y="-3" relative="1" as="geometry">
            <mxPoint x="1" y="-12" as="offset" />
          </mxGeometry>
        </mxCell>
        <mxCell id="09TjNsZcq6WUHKC7I4qy-31" value="customerLastName not equal to QUIT" style="shape=rhombus;html=1;dashed=0;whiteSpace=wrap;perimeter=rhombusPerimeter;labelBackgroundColor=none;" parent="WIyWlLk6GJQsqaUBKTNV-1" vertex="1">
          <mxGeometry x="84" y="429" width="153.5" height="111" as="geometry" />
        </mxCell>
        <mxCell id="09TjNsZcq6WUHKC7I4qy-34" style="edgeStyle=orthogonalEdgeStyle;rounded=0;orthogonalLoop=1;jettySize=auto;html=1;entryX=0.5;entryY=0;entryDx=0;entryDy=0;labelBackgroundColor=none;fontColor=default;" parent="WIyWlLk6GJQsqaUBKTNV-1" source="09TjNsZcq6WUHKC7I4qy-32" target="09TjNsZcq6WUHKC7I4qy-33" edge="1">
          <mxGeometry relative="1" as="geometry" />
        </mxCell>
        <mxCell id="09TjNsZcq6WUHKC7I4qy-32" value="housekeeping()" style="html=1;dashed=0;whiteSpace=wrap;shape=mxgraph.dfd.start;labelBackgroundColor=none;" parent="WIyWlLk6GJQsqaUBKTNV-1" vertex="1">
          <mxGeometry x="516" y="24" width="156" height="30" as="geometry" />
        </mxCell>
        <mxCell id="09TjNsZcq6WUHKC7I4qy-38" style="edgeStyle=orthogonalEdgeStyle;rounded=0;orthogonalLoop=1;jettySize=auto;html=1;labelBackgroundColor=none;fontColor=default;" parent="WIyWlLk6GJQsqaUBKTNV-1" source="09TjNsZcq6WUHKC7I4qy-33" target="09TjNsZcq6WUHKC7I4qy-35" edge="1">
          <mxGeometry relative="1" as="geometry" />
        </mxCell>
        <mxCell id="09TjNsZcq6WUHKC7I4qy-33" value="output&lt;div&gt;namePrompt&lt;/div&gt;" style="shape=parallelogram;perimeter=parallelogramPerimeter;whiteSpace=wrap;html=1;dashed=0;labelBackgroundColor=none;" parent="WIyWlLk6GJQsqaUBKTNV-1" vertex="1">
          <mxGeometry x="516" y="70" width="156" height="38" as="geometry" />
        </mxCell>
        <mxCell id="09TjNsZcq6WUHKC7I4qy-99" style="edgeStyle=orthogonalEdgeStyle;rounded=0;orthogonalLoop=1;jettySize=auto;html=1;" parent="WIyWlLk6GJQsqaUBKTNV-1" source="09TjNsZcq6WUHKC7I4qy-35" target="09TjNsZcq6WUHKC7I4qy-36" edge="1">
          <mxGeometry relative="1" as="geometry" />
        </mxCell>
        <mxCell id="09TjNsZcq6WUHKC7I4qy-35" value="input&lt;div&gt;customerLastName&lt;/div&gt;" style="shape=parallelogram;perimeter=parallelogramPerimeter;whiteSpace=wrap;html=1;dashed=0;labelBackgroundColor=none;" parent="WIyWlLk6GJQsqaUBKTNV-1" vertex="1">
          <mxGeometry x="516" y="132" width="156" height="36" as="geometry" />
        </mxCell>
        <mxCell id="09TjNsZcq6WUHKC7I4qy-36" value="return" style="html=1;dashed=0;whiteSpace=wrap;shape=mxgraph.dfd.start;labelBackgroundColor=none;" parent="WIyWlLk6GJQsqaUBKTNV-1" vertex="1">
          <mxGeometry x="554" y="192" width="80" height="30" as="geometry" />
        </mxCell>
        <mxCell id="09TjNsZcq6WUHKC7I4qy-40" value="" style="swimlane;startSize=0;labelBackgroundColor=none;" parent="WIyWlLk6GJQsqaUBKTNV-1" vertex="1">
          <mxGeometry x="77.5" y="585" width="200" height="48" as="geometry" />
        </mxCell>
        <mxCell id="09TjNsZcq6WUHKC7I4qy-41" value="endOfJob()" style="rounded=0;whiteSpace=wrap;html=1;labelBackgroundColor=none;" parent="09TjNsZcq6WUHKC7I4qy-40" vertex="1">
          <mxGeometry x="-4" y="9" width="204" height="48" as="geometry" />
        </mxCell>
        <mxCell id="09TjNsZcq6WUHKC7I4qy-42" value="" style="rounded=0;whiteSpace=wrap;html=1;labelBackgroundColor=none;" parent="09TjNsZcq6WUHKC7I4qy-40" vertex="1">
          <mxGeometry x="-4" width="204" height="12" as="geometry" />
        </mxCell>
        <mxCell id="09TjNsZcq6WUHKC7I4qy-46" value="" style="rounded=0;whiteSpace=wrap;html=1;labelBackgroundColor=none;" parent="WIyWlLk6GJQsqaUBKTNV-1" vertex="1">
          <mxGeometry x="300" y="444" width="120" height="60" as="geometry" />
        </mxCell>
        <mxCell id="09TjNsZcq6WUHKC7I4qy-101" style="edgeStyle=orthogonalEdgeStyle;rounded=0;orthogonalLoop=1;jettySize=auto;html=1;" parent="WIyWlLk6GJQsqaUBKTNV-1" source="09TjNsZcq6WUHKC7I4qy-47" edge="1">
          <mxGeometry relative="1" as="geometry">
            <mxPoint x="156" y="408" as="targetPoint" />
            <Array as="points">
              <mxPoint x="445" y="483" />
            </Array>
          </mxGeometry>
        </mxCell>
        <mxCell id="09TjNsZcq6WUHKC7I4qy-47" value="detailLoop()" style="rounded=0;whiteSpace=wrap;html=1;labelBackgroundColor=none;" parent="WIyWlLk6GJQsqaUBKTNV-1" vertex="1">
          <mxGeometry x="300" y="458.25" width="120" height="49.5" as="geometry" />
        </mxCell>
        <mxCell id="09TjNsZcq6WUHKC7I4qy-61" value="Stop" style="strokeWidth=2;html=1;shape=mxgraph.flowchart.start_1;whiteSpace=wrap;labelBackgroundColor=none;" parent="WIyWlLk6GJQsqaUBKTNV-1" vertex="1">
          <mxGeometry x="125.25" y="672" width="100" height="60" as="geometry" />
        </mxCell>
        <mxCell id="09TjNsZcq6WUHKC7I4qy-62" style="edgeStyle=orthogonalEdgeStyle;rounded=0;orthogonalLoop=1;jettySize=auto;html=1;entryX=0.5;entryY=0;entryDx=0;entryDy=0;entryPerimeter=0;labelBackgroundColor=none;fontColor=default;" parent="WIyWlLk6GJQsqaUBKTNV-1" source="09TjNsZcq6WUHKC7I4qy-41" target="09TjNsZcq6WUHKC7I4qy-61" edge="1">
          <mxGeometry relative="1" as="geometry" />
        </mxCell>
        <mxCell id="09TjNsZcq6WUHKC7I4qy-100" style="edgeStyle=orthogonalEdgeStyle;rounded=0;orthogonalLoop=1;jettySize=auto;html=1;" parent="WIyWlLk6GJQsqaUBKTNV-1" source="09TjNsZcq6WUHKC7I4qy-65" edge="1">
          <mxGeometry relative="1" as="geometry">
            <mxPoint x="742" y="59" as="targetPoint" />
          </mxGeometry>
        </mxCell>
        <mxCell id="09TjNsZcq6WUHKC7I4qy-65" value="endOfJob()" style="html=1;dashed=0;whiteSpace=wrap;shape=mxgraph.dfd.start" parent="WIyWlLk6GJQsqaUBKTNV-1" vertex="1">
          <mxGeometry x="702" y="17" width="80" height="30" as="geometry" />
        </mxCell>
        <mxCell id="09TjNsZcq6WUHKC7I4qy-66" value="return" style="html=1;dashed=0;whiteSpace=wrap;shape=mxgraph.dfd.start" parent="WIyWlLk6GJQsqaUBKTNV-1" vertex="1">
          <mxGeometry x="702" y="131" width="80" height="30" as="geometry" />
        </mxCell>
        <mxCell id="09TjNsZcq6WUHKC7I4qy-67" value="output&lt;div&gt;endLine&lt;/div&gt;" style="shape=parallelogram;perimeter=parallelogramPerimeter;whiteSpace=wrap;html=1;dashed=0;" parent="WIyWlLk6GJQsqaUBKTNV-1" vertex="1">
          <mxGeometry x="692" y="65" width="100" height="50" as="geometry" />
        </mxCell>
        <mxCell id="09TjNsZcq6WUHKC7I4qy-69" style="edgeStyle=orthogonalEdgeStyle;rounded=0;orthogonalLoop=1;jettySize=auto;html=1;entryX=0.5;entryY=0.5;entryDx=0;entryDy=-15;entryPerimeter=0;" parent="WIyWlLk6GJQsqaUBKTNV-1" target="09TjNsZcq6WUHKC7I4qy-66" edge="1">
          <mxGeometry relative="1" as="geometry">
            <mxPoint x="742" y="109" as="sourcePoint" />
          </mxGeometry>
        </mxCell>
        <mxCell id="09TjNsZcq6WUHKC7I4qy-76" style="edgeStyle=orthogonalEdgeStyle;rounded=0;orthogonalLoop=1;jettySize=auto;html=1;entryX=0.5;entryY=0;entryDx=0;entryDy=0;" parent="WIyWlLk6GJQsqaUBKTNV-1" source="09TjNsZcq6WUHKC7I4qy-70" target="09TjNsZcq6WUHKC7I4qy-71" edge="1">
          <mxGeometry relative="1" as="geometry" />
        </mxCell>
        <mxCell id="09TjNsZcq6WUHKC7I4qy-70" value="detailLoop()" style="html=1;dashed=0;whiteSpace=wrap;shape=mxgraph.dfd.start" parent="WIyWlLk6GJQsqaUBKTNV-1" vertex="1">
          <mxGeometry x="480" y="240" width="146" height="30" as="geometry" />
        </mxCell>
        <mxCell id="09TjNsZcq6WUHKC7I4qy-82" style="edgeStyle=orthogonalEdgeStyle;rounded=0;orthogonalLoop=1;jettySize=auto;html=1;" parent="WIyWlLk6GJQsqaUBKTNV-1" source="09TjNsZcq6WUHKC7I4qy-71" target="09TjNsZcq6WUHKC7I4qy-73" edge="1">
          <mxGeometry relative="1" as="geometry" />
        </mxCell>
        <mxCell id="09TjNsZcq6WUHKC7I4qy-71" value="input&lt;div&gt;numberofBathrooms&lt;/div&gt;" style="shape=parallelogram;perimeter=parallelogramPerimeter;whiteSpace=wrap;html=1;dashed=0;" parent="WIyWlLk6GJQsqaUBKTNV-1" vertex="1">
          <mxGeometry x="471" y="310" width="164" height="50" as="geometry" />
        </mxCell>
        <mxCell id="09TjNsZcq6WUHKC7I4qy-83" style="edgeStyle=orthogonalEdgeStyle;rounded=0;orthogonalLoop=1;jettySize=auto;html=1;" parent="WIyWlLk6GJQsqaUBKTNV-1" source="09TjNsZcq6WUHKC7I4qy-73" target="09TjNsZcq6WUHKC7I4qy-79" edge="1">
          <mxGeometry relative="1" as="geometry" />
        </mxCell>
        <mxCell id="09TjNsZcq6WUHKC7I4qy-73" value="input&lt;div&gt;numberOfOtherRooms&lt;/div&gt;" style="shape=parallelogram;perimeter=parallelogramPerimeter;whiteSpace=wrap;html=1;dashed=0;" parent="WIyWlLk6GJQsqaUBKTNV-1" vertex="1">
          <mxGeometry x="469" y="390" width="168" height="50" as="geometry" />
        </mxCell>
        <mxCell id="09TjNsZcq6WUHKC7I4qy-105" style="edgeStyle=orthogonalEdgeStyle;rounded=0;orthogonalLoop=1;jettySize=auto;html=1;" parent="WIyWlLk6GJQsqaUBKTNV-1" source="09TjNsZcq6WUHKC7I4qy-74" target="09TjNsZcq6WUHKC7I4qy-86" edge="1">
          <mxGeometry relative="1" as="geometry" />
        </mxCell>
        <mxCell id="09TjNsZcq6WUHKC7I4qy-74" value="serviceCharge = baseCharge + totalCostOfBathrooms + totalCostOfOtherRooms" style="html=1;dashed=0;whiteSpace=wrap;" parent="WIyWlLk6GJQsqaUBKTNV-1" vertex="1">
          <mxGeometry x="456" y="624" width="192" height="72" as="geometry" />
        </mxCell>
        <mxCell id="09TjNsZcq6WUHKC7I4qy-84" style="edgeStyle=orthogonalEdgeStyle;rounded=0;orthogonalLoop=1;jettySize=auto;html=1;" parent="WIyWlLk6GJQsqaUBKTNV-1" source="09TjNsZcq6WUHKC7I4qy-79" target="09TjNsZcq6WUHKC7I4qy-80" edge="1">
          <mxGeometry relative="1" as="geometry" />
        </mxCell>
        <mxCell id="09TjNsZcq6WUHKC7I4qy-79" value="totalCostOfBathrooms = numberOfBathrooms *&amp;nbsp; costOfBathrooms" style="html=1;dashed=0;whiteSpace=wrap;" parent="WIyWlLk6GJQsqaUBKTNV-1" vertex="1">
          <mxGeometry x="469" y="468" width="168" height="60" as="geometry" />
        </mxCell>
        <mxCell id="09TjNsZcq6WUHKC7I4qy-85" style="edgeStyle=orthogonalEdgeStyle;rounded=0;orthogonalLoop=1;jettySize=auto;html=1;" parent="WIyWlLk6GJQsqaUBKTNV-1" source="09TjNsZcq6WUHKC7I4qy-80" target="09TjNsZcq6WUHKC7I4qy-74" edge="1">
          <mxGeometry relative="1" as="geometry" />
        </mxCell>
        <mxCell id="09TjNsZcq6WUHKC7I4qy-80" value="totalCostOfOtherRooms = numberOfOtherRooms * costOfOtherRooms" style="html=1;dashed=0;whiteSpace=wrap;" parent="WIyWlLk6GJQsqaUBKTNV-1" vertex="1">
          <mxGeometry x="469" y="552" width="168" height="50" as="geometry" />
        </mxCell>
        <mxCell id="09TjNsZcq6WUHKC7I4qy-94" style="edgeStyle=orthogonalEdgeStyle;rounded=0;orthogonalLoop=1;jettySize=auto;html=1;" parent="WIyWlLk6GJQsqaUBKTNV-1" source="09TjNsZcq6WUHKC7I4qy-86" target="09TjNsZcq6WUHKC7I4qy-87" edge="1">
          <mxGeometry relative="1" as="geometry" />
        </mxCell>
        <mxCell id="09TjNsZcq6WUHKC7I4qy-86" value="output&lt;div&gt;customerLastName&lt;/div&gt;" style="shape=parallelogram;perimeter=parallelogramPerimeter;whiteSpace=wrap;html=1;dashed=0;" parent="WIyWlLk6GJQsqaUBKTNV-1" vertex="1">
          <mxGeometry x="480" y="720" width="168" height="50" as="geometry" />
        </mxCell>
        <mxCell id="09TjNsZcq6WUHKC7I4qy-97" style="edgeStyle=orthogonalEdgeStyle;rounded=0;orthogonalLoop=1;jettySize=auto;html=1;" parent="WIyWlLk6GJQsqaUBKTNV-1" source="09TjNsZcq6WUHKC7I4qy-87" target="09TjNsZcq6WUHKC7I4qy-88" edge="1">
          <mxGeometry relative="1" as="geometry" />
        </mxCell>
        <mxCell id="09TjNsZcq6WUHKC7I4qy-87" value="output&lt;div&gt;numberOfBathrooms, totalCostOfBathrooms&lt;/div&gt;" style="shape=parallelogram;perimeter=parallelogramPerimeter;whiteSpace=wrap;html=1;dashed=0;" parent="WIyWlLk6GJQsqaUBKTNV-1" vertex="1">
          <mxGeometry x="474" y="792" width="180" height="60" as="geometry" />
        </mxCell>
        <mxCell id="09TjNsZcq6WUHKC7I4qy-98" style="edgeStyle=orthogonalEdgeStyle;rounded=0;orthogonalLoop=1;jettySize=auto;html=1;" parent="WIyWlLk6GJQsqaUBKTNV-1" source="09TjNsZcq6WUHKC7I4qy-88" target="09TjNsZcq6WUHKC7I4qy-89" edge="1">
          <mxGeometry relative="1" as="geometry" />
        </mxCell>
        <mxCell id="09TjNsZcq6WUHKC7I4qy-88" value="output&lt;div&gt;numberOfOtherRooms, totalCostOfOtherRooms&lt;/div&gt;" style="shape=parallelogram;perimeter=parallelogramPerimeter;whiteSpace=wrap;html=1;dashed=0;" parent="WIyWlLk6GJQsqaUBKTNV-1" vertex="1">
          <mxGeometry x="468" y="876" width="192" height="60" as="geometry" />
        </mxCell>
        <mxCell id="09TjNsZcq6WUHKC7I4qy-103" style="edgeStyle=orthogonalEdgeStyle;rounded=0;orthogonalLoop=1;jettySize=auto;html=1;" parent="WIyWlLk6GJQsqaUBKTNV-1" source="09TjNsZcq6WUHKC7I4qy-89" target="09TjNsZcq6WUHKC7I4qy-102" edge="1">
          <mxGeometry relative="1" as="geometry" />
        </mxCell>
        <mxCell id="09TjNsZcq6WUHKC7I4qy-89" value="output&lt;div&gt;serviceCharge&lt;/div&gt;" style="shape=parallelogram;perimeter=parallelogramPerimeter;whiteSpace=wrap;html=1;fixedSize=1;" parent="WIyWlLk6GJQsqaUBKTNV-1" vertex="1">
          <mxGeometry x="504" y="972" width="120" height="36" as="geometry" />
        </mxCell>
        <mxCell id="09TjNsZcq6WUHKC7I4qy-106" style="edgeStyle=orthogonalEdgeStyle;rounded=0;orthogonalLoop=1;jettySize=auto;html=1;" parent="WIyWlLk6GJQsqaUBKTNV-1" source="09TjNsZcq6WUHKC7I4qy-102" target="09TjNsZcq6WUHKC7I4qy-104" edge="1">
          <mxGeometry relative="1" as="geometry" />
        </mxCell>
        <mxCell id="09TjNsZcq6WUHKC7I4qy-102" value="input&lt;div&gt;customerLastName&lt;/div&gt;" style="shape=parallelogram;perimeter=parallelogramPerimeter;whiteSpace=wrap;html=1;fixedSize=1;" parent="WIyWlLk6GJQsqaUBKTNV-1" vertex="1">
          <mxGeometry x="492" y="1032" width="144" height="36" as="geometry" />
        </mxCell>
        <mxCell id="09TjNsZcq6WUHKC7I4qy-104" value="return" style="html=1;dashed=0;whiteSpace=wrap;shape=mxgraph.dfd.start" parent="WIyWlLk6GJQsqaUBKTNV-1" vertex="1">
          <mxGeometry x="524" y="1092" width="80" height="30" as="geometry" />
        </mxCell>
        <mxCell id="MYD-MpHWtDBwmuMfk58d-0" style="edgeStyle=orthogonalEdgeStyle;rounded=0;orthogonalLoop=1;jettySize=auto;html=1;entryX=0.429;entryY=0.667;entryDx=0;entryDy=0;entryPerimeter=0;" edge="1" parent="WIyWlLk6GJQsqaUBKTNV-1" source="09TjNsZcq6WUHKC7I4qy-31" target="09TjNsZcq6WUHKC7I4qy-42">
          <mxGeometry relative="1" as="geometry" />
        </mxCell>
        <mxCell id="MYD-MpHWtDBwmuMfk58d-1" value="" style="rounded=0;whiteSpace=wrap;html=1;" vertex="1" parent="WIyWlLk6GJQsqaUBKTNV-1">
          <mxGeometry x="100.75" y="330" width="120" height="60" as="geometry" />
        </mxCell>
        <mxCell id="MYD-MpHWtDBwmuMfk58d-3" style="edgeStyle=orthogonalEdgeStyle;rounded=0;orthogonalLoop=1;jettySize=auto;html=1;" edge="1" parent="WIyWlLk6GJQsqaUBKTNV-1" source="MYD-MpHWtDBwmuMfk58d-2" target="09TjNsZcq6WUHKC7I4qy-31">
          <mxGeometry relative="1" as="geometry" />
        </mxCell>
        <mxCell id="MYD-MpHWtDBwmuMfk58d-2" value="housekeeping()" style="rounded=0;whiteSpace=wrap;html=1;" vertex="1" parent="WIyWlLk6GJQsqaUBKTNV-1">
          <mxGeometry x="100.75" y="336" width="120" height="54" as="geometry" />
        </mxCell>
        <mxCell id="MYD-MpHWtDBwmuMfk58d-4" style="edgeStyle=orthogonalEdgeStyle;rounded=0;orthogonalLoop=1;jettySize=auto;html=1;entryX=0.619;entryY=0.067;entryDx=0;entryDy=0;entryPerimeter=0;" edge="1" parent="WIyWlLk6GJQsqaUBKTNV-1" source="09TjNsZcq6WUHKC7I4qy-9" target="MYD-MpHWtDBwmuMfk58d-1">
          <mxGeometry relative="1" as="geometry" />
        </mxCell>
      </root>
    </mxGraphModel>
  </diagram>
</mxfile>
